<?xml version="1.0" encoding="UTF-8" ?>
<!DOCTYPE svg PUBLIC "-//W3C//DTD SVG 1.1//EN" "http://www.w3.org/Graphics/SVG/1.1/DTD/svg11.dtd">
<svg width="90pt" height="90pt" viewBox="0 0 90 90" version="1.1" xmlns="http://www.w3.org/2000/svg">
<g id="#4285f4ff">
<path fill="#4285f4" opacity="1.00" d=" M 32.93 9.06 C 33.12 7.57 34.19 5.96 35.88 6.07 C 41.96 5.95 48.05 5.93 54.13 6.08 C 56.31 5.99 57.60 8.58 56.64 10.41 C 53.33 19.96 49.86 29.46 46.50 38.99 C 52.02 39.08 57.55 38.86 63.07 39.08 C 64.72 38.98 65.91 40.46 66.04 41.99 C 65.48 43.91 64.42 45.63 63.48 47.39 C 57.11 59.08 50.94 70.89 44.51 82.55 C 43.22 85.12 38.86 83.91 39.06 81.04 C 40.34 71.00 42.06 61.02 43.50 51.00 C 37.97 50.92 32.42 51.14 26.89 50.92 C 24.91 51.03 23.54 48.79 24.18 47.00 C 27.04 34.34 29.98 21.70 32.93 9.06 Z" />
</g>
</svg>
